P3
# P3 is magic constant, and means colors are in ASCII,
# then 9 columns and 8 rows,
# then 255 for max color,
# then RGB triplets.
9 8
255
255 255 255   255 255 255   255 255 255   255 255 255   255 255 255   255 255 255   255 255 255   255 255 255     0   0   0
255 255 255   255 255 255   255 255 255   255 255 255     0   0   0   255 255 255   255 255 255   255 255 255     0   0   0
255 255 255   255 255 255   255 255 255   255 255 255     0   0   0   255 255 255   255 255 255   255 255 255     0   0   0
255 255 255   255 255 255   255 255 255     0   0   0   255 255 255     0   0   0   255 255 255   255 255 255     0   0   0
255 255 255   255 255 255   255 255 255     0   0   0   255 255 255     0   0   0   255 255 255   255 255 255     0   0   0
255 255 255   255 255 255     0   0   0   255 255 255   255 255 255   255 255 255     0   0   0   255 255 255     0   0   0
255 255 255   255 255 255     0   0   0   255 255 255   255 255 255   255 255 255     0   0   0   255 255 255     0   0   0
255 255 255     0   0   0   255 255 255   255 255 255   255 255 255   255 255 255   255 255 255     0   0   0     0   0   0
